<?xml version="1.0" encoding="utf-8"?>
<!-- Generator: Adobe Illustrator 22.1.0, SVG Export Plug-In . SVG Version: 6.00 Build 0)  -->
<svg version="1.1" xmlns="http://www.w3.org/2000/svg" xmlns:xlink="http://www.w3.org/1999/xlink" x="0px" y="0px"
	 viewBox="0 0 328.7 174.1" style="enable-background:new 0 0 328.7 174.1;" xml:space="preserve">
<style type="text/css">
	.st0{fill:none;}
	.st1{fill:#512D88;}
	.st2{stroke:#FFFFFF;stroke-width:12.7232;stroke-miterlimit:10;}
	.st3{fill:#FFFFFF;}
	.st4{clip-path:url(#SVGID_2_);}
	.st5{clip-path:url(#SVGID_4_);}
	.st6{clip-path:url(#SVGID_6_);}
	.st7{stroke:#FFFFFF;stroke-width:6.8294;stroke-miterlimit:10;}
	.st8{stroke:#FFFFFF;stroke-width:4.4635;stroke-miterlimit:10;}
	.st9{stroke:#FFFFFF;stroke-width:7.7471;stroke-miterlimit:10;}
	.st10{stroke:#FFFFFF;stroke-width:2.2135;stroke-miterlimit:10;}
	.st11{stroke:#FFFFFF;stroke-width:1.8123;stroke-miterlimit:10;}
	.st12{stroke:#FFFFFF;stroke-width:3.8536;stroke-miterlimit:10;}
	.st13{fill:none;stroke:#000000;stroke-width:0.423;stroke-miterlimit:10;}
	.st14{fill:none;stroke:#000000;stroke-width:1.3013;stroke-miterlimit:10;}
	.st15{fill:none;stroke:#000000;stroke-width:0.9635;stroke-miterlimit:10;}
	.st16{fill:none;stroke:#000000;stroke-width:0.6352;stroke-miterlimit:10;}
	.st17{fill:none;stroke:#000000;stroke-width:5;stroke-miterlimit:10;}
	.st18{fill:none;stroke:#000000;stroke-width:7.0481;stroke-miterlimit:10;}
	.st19{fill:#9E7870;}
	.st20{fill:#FFEEBB;}
	.st21{fill:#ECAF20;}
	.st22{fill:#E7DED0;}
	.st23{fill:#9481BC;}
	.st24{fill:#919195;}
	.st25{stroke:#FFFFFF;stroke-width:4;stroke-linecap:square;stroke-linejoin:round;stroke-miterlimit:10;}
</style>
<g id="Layer_2">
</g>
<g id="Layer_1">
	<g>
		<g>
			<path class="st21" d="M76.5,112.1c-0.2,0-0.4-0.1-0.6-0.1c0.2,0,0.4,0,0.5-0.1c-3.5-6.4-5.5-13.8-5.5-21.8
				c0-18.9,11.4-34.9,27.1-40.6c-2.1-9.6-13-17.6-31.7-13.4c-21.1-4.4-30.9,3.8-32.7,13.5c15.6,5.8,26.9,21.7,26.9,40.5
				c0,7.9-2,15.3-5.5,21.7c0.3,0,0.6,0.1,0.8,0.1c-0.3,0-0.7,0.1-1,0.1c-4.8,8.7-12.4,15.4-21.5,18.7c0,0.3,0,0.6,0,0.8
				c0,11,14.6,20,32.6,20s32.6-9,32.6-20c0-0.2,0-0.5,0-0.7C89.1,127.7,81.4,120.9,76.5,112.1z"/>
			<path class="st21" d="M66.5,30.4c0,0-4-7,6.9-8.4C77.9,27.3,66.5,30.4,66.5,30.4z"/>
		</g>
		<g>
			<g>
				<path class="st3" d="M125.1,47.7c-0.4,0.3-0.8,0.6-1.2,0.8c-0.4,0.2-0.9,0.4-1.5,0.5c-0.5,0.1-1.1,0.2-1.8,0.2
					c-1,0-1.9-0.2-2.8-0.5c-0.9-0.4-1.6-0.9-2.2-1.5c-0.6-0.6-1.1-1.4-1.5-2.2c-0.3-0.9-0.5-1.8-0.5-2.7v0c0-1,0.2-1.9,0.5-2.7
					c0.3-0.8,0.8-1.6,1.5-2.2c0.6-0.6,1.4-1.1,2.2-1.5c0.9-0.4,1.8-0.6,2.9-0.6c0.6,0,1.2,0.1,1.7,0.2c0.5,0.1,1,0.2,1.4,0.4
					c0.4,0.2,0.8,0.4,1.2,0.7c0.4,0.3,0.7,0.5,1,0.9l-1.9,2.2c-0.5-0.5-1.1-0.9-1.6-1.1c-0.5-0.3-1.2-0.4-1.9-0.4
					c-0.6,0-1.1,0.1-1.6,0.3c-0.5,0.2-0.9,0.5-1.3,0.9c-0.3,0.4-0.6,0.8-0.8,1.3c-0.2,0.5-0.3,1.1-0.3,1.6v0c0,0.6,0.1,1.1,0.3,1.6
					c0.2,0.5,0.5,1,0.8,1.4c0.3,0.4,0.8,0.7,1.2,0.9c0.5,0.2,1,0.3,1.6,0.3c0.8,0,1.4-0.1,2-0.4c0.5-0.3,1.1-0.7,1.6-1.2l1.9,1.9
					C125.8,47.1,125.5,47.4,125.1,47.7z"/>
				<path class="st3" d="M141.9,44.8c-0.4,0.8-0.9,1.6-1.5,2.2c-0.6,0.6-1.4,1.1-2.3,1.5c-0.9,0.4-1.9,0.6-2.9,0.6
					c-1,0-2-0.2-2.9-0.6c-0.9-0.4-1.6-0.9-2.3-1.5c-0.6-0.6-1.1-1.4-1.5-2.2c-0.4-0.8-0.5-1.8-0.5-2.7v0c0-1,0.2-1.9,0.5-2.7
					c0.4-0.8,0.9-1.6,1.5-2.2c0.6-0.6,1.4-1.1,2.3-1.5c0.9-0.4,1.9-0.6,2.9-0.6s2,0.2,2.9,0.6c0.9,0.4,1.6,0.9,2.3,1.5
					c0.6,0.6,1.1,1.4,1.5,2.2c0.4,0.8,0.5,1.8,0.5,2.7v0C142.4,43.1,142.2,44,141.9,44.8z M139.3,42.1c0-0.6-0.1-1.1-0.3-1.6
					c-0.2-0.5-0.5-1-0.9-1.4c-0.4-0.4-0.8-0.7-1.3-0.9c-0.5-0.2-1.1-0.3-1.6-0.3c-0.6,0-1.2,0.1-1.7,0.3c-0.5,0.2-0.9,0.5-1.3,0.9
					c-0.4,0.4-0.6,0.8-0.8,1.3c-0.2,0.5-0.3,1.1-0.3,1.6v0c0,0.6,0.1,1.1,0.3,1.6c0.2,0.5,0.5,1,0.9,1.4c0.4,0.4,0.8,0.7,1.3,0.9
					c0.5,0.2,1.1,0.3,1.7,0.3c0.6,0,1.1-0.1,1.6-0.3s0.9-0.5,1.3-0.9s0.6-0.8,0.8-1.3C139.2,43.3,139.3,42.7,139.3,42.1L139.3,42.1z
					"/>
				<path class="st3" d="M155.7,48.9V40l-3.8,5.8h-0.1l-3.8-5.7v8.8h-2.9V35.3h3.2l3.6,5.7l3.6-5.7h3.2v13.6H155.7z"/>
				<path class="st3" d="M172.2,42.1c-0.3,0.6-0.7,1.1-1.2,1.5c-0.5,0.4-1.1,0.7-1.7,0.9s-1.4,0.3-2.1,0.3h-2.3v4.1h-3V35.3h5.5
					c0.8,0,1.5,0.1,2.2,0.3c0.6,0.2,1.2,0.5,1.6,1c0.4,0.4,0.8,0.9,1,1.5c0.2,0.6,0.4,1.2,0.4,1.9v0
					C172.6,40.8,172.5,41.5,172.2,42.1z M169.6,40.1c0-0.7-0.2-1.2-0.6-1.5c-0.4-0.3-1-0.5-1.8-0.5h-2.3v4.1h2.4
					c0.7,0,1.3-0.2,1.7-0.6C169.4,41.2,169.6,40.7,169.6,40.1L169.6,40.1z"/>
				<path class="st3" d="M186,45.7c-0.3,0.8-0.7,1.4-1.2,1.9c-0.5,0.5-1.1,0.9-1.9,1.1c-0.7,0.3-1.6,0.4-2.5,0.4
					c-1.8,0-3.3-0.5-4.3-1.5s-1.6-2.5-1.6-4.5v-7.8h3V43c0,1.1,0.3,1.9,0.8,2.5c0.5,0.6,1.2,0.8,2.2,0.8c0.9,0,1.6-0.3,2.2-0.8
					s0.8-1.4,0.8-2.4v-7.8h3V43C186.5,44,186.3,44.9,186,45.7z"/>
				<path class="st3" d="M195.7,38.1v10.8h-3V38.1h-4.1v-2.8h11.2v2.8H195.7z"/>
				<path class="st3" d="M212.2,48.9l-1.2-3h-5.7l-1.2,3h-3l5.8-13.7h2.8l5.8,13.7H212.2z M208.1,38.8l-1.8,4.4h3.6L208.1,38.8z"/>
				<path class="st3" d="M223.5,38.1v10.8h-3V38.1h-4.1v-2.8h11.2v2.8H223.5z"/>
				<path class="st3" d="M230.1,48.9V35.3h3v13.6H230.1z"/>
				<path class="st3" d="M249.8,44.8c-0.4,0.8-0.9,1.6-1.5,2.2c-0.6,0.6-1.4,1.1-2.3,1.5c-0.9,0.4-1.9,0.6-2.9,0.6
					c-1,0-2-0.2-2.9-0.6c-0.9-0.4-1.6-0.9-2.3-1.5c-0.6-0.6-1.1-1.4-1.5-2.2c-0.4-0.8-0.5-1.8-0.5-2.7v0c0-1,0.2-1.9,0.5-2.7
					c0.4-0.8,0.9-1.6,1.5-2.2c0.6-0.6,1.4-1.1,2.3-1.5c0.9-0.4,1.9-0.6,2.9-0.6s2,0.2,2.9,0.6c0.9,0.4,1.6,0.9,2.3,1.5
					c0.6,0.6,1.1,1.4,1.5,2.2c0.4,0.8,0.5,1.8,0.5,2.7v0C250.3,43.1,250.1,44,249.8,44.8z M247.2,42.1c0-0.6-0.1-1.1-0.3-1.6
					c-0.2-0.5-0.5-1-0.9-1.4c-0.4-0.4-0.8-0.7-1.3-0.9c-0.5-0.2-1.1-0.3-1.6-0.3c-0.6,0-1.2,0.1-1.7,0.3c-0.5,0.2-0.9,0.5-1.3,0.9
					c-0.4,0.4-0.6,0.8-0.8,1.3c-0.2,0.5-0.3,1.1-0.3,1.6v0c0,0.6,0.1,1.1,0.3,1.6c0.2,0.5,0.5,1,0.9,1.4c0.4,0.4,0.8,0.7,1.3,0.9
					c0.5,0.2,1.1,0.3,1.7,0.3c0.6,0,1.1-0.1,1.6-0.3s0.9-0.5,1.3-0.9s0.6-0.8,0.8-1.3C247.1,43.3,247.2,42.7,247.2,42.1L247.2,42.1z
					"/>
				<path class="st3" d="M262.5,48.9l-6.6-8.6v8.6H253V35.3h2.8l6.4,8.4v-8.4h2.9v13.6H262.5z"/>
				<path class="st3" d="M278.4,48.9l-1.2-3h-5.7l-1.2,3h-3l5.8-13.7h2.8l5.8,13.7H278.4z M274.3,38.8l-1.8,4.4h3.6L274.3,38.8z"/>
				<path class="st3" d="M283.6,48.9V35.3h3v10.9h6.8v2.7H283.6z"/>
			</g>
			<g>
				<path class="st3" d="M139.2,108.8c-1.4,1.1-3,2.1-4.7,2.9c-1.7,0.8-3.6,1.4-5.6,1.8c-2,0.4-4.3,0.6-6.8,0.6
					c-3.8,0-7.3-0.7-10.6-2.1c-3.3-1.4-6.1-3.3-8.4-5.7c-2.4-2.4-4.2-5.2-5.5-8.5c-1.3-3.3-2-6.7-2-10.4v-0.1c0-3.7,0.7-7.2,2-10.4
					c1.3-3.2,3.2-6.1,5.5-8.5c2.4-2.4,5.2-4.4,8.5-5.8c3.3-1.4,6.9-2.1,10.9-2.1c2.4,0,4.6,0.2,6.6,0.6c2,0.4,3.8,0.9,5.4,1.6
					c1.6,0.7,3.1,1.5,4.5,2.5c1.4,1,2.7,2.1,3.8,3.3l-7.2,8.4c-2-1.8-4.1-3.3-6.2-4.3c-2.1-1-4.4-1.6-7.1-1.6c-2.2,0-4.2,0.4-6,1.3
					c-1.8,0.8-3.4,2-4.8,3.5c-1.3,1.5-2.4,3.2-3.1,5.1c-0.7,1.9-1.1,4-1.1,6.2v0.1c0,2.2,0.4,4.3,1.1,6.3c0.7,2,1.8,3.7,3.1,5.2
					c1.3,1.5,2.9,2.6,4.7,3.5c1.8,0.9,3.9,1.3,6.1,1.3c3,0,5.5-0.5,7.5-1.6c2-1.1,4.1-2.6,6.1-4.4l7.2,7.3
					C142,106.4,140.6,107.6,139.2,108.8z"/>
				<path class="st3" d="M197.9,97.8c-1.4,3.2-3.3,6.1-5.7,8.5c-2.4,2.4-5.3,4.4-8.7,5.8c-3.4,1.4-7.1,2.1-11.1,2.1
					c-4,0-7.7-0.7-11-2.1c-3.4-1.4-6.2-3.3-8.7-5.7c-2.4-2.4-4.3-5.2-5.7-8.4c-1.4-3.2-2-6.7-2-10.4v-0.1c0-3.7,0.7-7.2,2.1-10.4
					c1.4-3.2,3.3-6.1,5.7-8.5c2.4-2.4,5.3-4.4,8.7-5.8c3.4-1.4,7.1-2.1,11.1-2.1c4,0,7.7,0.7,11,2.1c3.4,1.4,6.2,3.3,8.7,5.7
					c2.4,2.4,4.3,5.2,5.7,8.4c1.4,3.2,2,6.7,2,10.4v0.1C200,91.1,199.3,94.6,197.9,97.8z M188.1,87.4c0-2.2-0.4-4.3-1.1-6.3
					c-0.8-2-1.8-3.7-3.3-5.2c-1.4-1.5-3.1-2.6-5-3.5c-1.9-0.9-4-1.3-6.3-1.3c-2.3,0-4.4,0.4-6.3,1.3c-1.9,0.8-3.5,2-4.9,3.5
					c-1.4,1.5-2.4,3.2-3.2,5.1c-0.8,1.9-1.1,4-1.1,6.2v0.1c0,2.2,0.4,4.3,1.1,6.3c0.8,2,1.8,3.7,3.3,5.2c1.4,1.5,3.1,2.6,5,3.5
					c1.9,0.9,4,1.3,6.3,1.3c2.3,0,4.4-0.4,6.3-1.3c1.9-0.8,3.6-2,4.9-3.5c1.4-1.5,2.4-3.2,3.2-5.1c0.8-1.9,1.1-4,1.1-6.2V87.4z"/>
				<path class="st3" d="M236.4,113.3l-11.1-16.6h-8.9v16.6h-11.4V61.5h23.7c6.2,0,11,1.5,14.4,4.5c3.4,3,5.1,7.2,5.1,12.6v0.1
					c0,4.2-1,7.6-3.1,10.2c-2,2.6-4.7,4.6-8,5.8l12.6,18.5H236.4z M236.6,79.2c0-2.5-0.8-4.3-2.4-5.5c-1.6-1.2-3.8-1.8-6.6-1.8
					h-11.3v14.9h11.5c2.8,0,5-0.7,6.5-2c1.5-1.3,2.3-3.1,2.3-5.3V79.2z"/>
				<path class="st3" d="M256.2,113.3V61.5h39v10.1h-27.7v10.5h24.4v10.1h-24.4v10.9h28.1v10.1H256.2z"/>
			</g>
		</g>
	</g>
</g>
</svg>
