<?xml version="1.0" encoding="utf-8"?>
<!-- Generator: Adobe Illustrator 22.1.0, SVG Export Plug-In . SVG Version: 6.00 Build 0)  -->
<svg version="1.1" xmlns="http://www.w3.org/2000/svg" xmlns:xlink="http://www.w3.org/1999/xlink" x="0px" y="0px"
	 viewBox="0 0 328.7 174.1" style="enable-background:new 0 0 328.7 174.1;" xml:space="preserve">
<style type="text/css">
	.st0{fill:none;}
	.st1{fill:#512D88;}
	.st2{stroke:#FFFFFF;stroke-width:12.7232;stroke-miterlimit:10;}
	.st3{fill:#FFFFFF;}
	.st4{clip-path:url(#SVGID_2_);}
	.st5{clip-path:url(#SVGID_4_);}
	.st6{clip-path:url(#SVGID_6_);}
	.st7{stroke:#FFFFFF;stroke-width:6.8294;stroke-miterlimit:10;}
	.st8{stroke:#FFFFFF;stroke-width:4.4635;stroke-miterlimit:10;}
	.st9{stroke:#FFFFFF;stroke-width:7.7471;stroke-miterlimit:10;}
	.st10{stroke:#FFFFFF;stroke-width:2.2135;stroke-miterlimit:10;}
	.st11{stroke:#FFFFFF;stroke-width:1.8123;stroke-miterlimit:10;}
	.st12{stroke:#FFFFFF;stroke-width:3.8536;stroke-miterlimit:10;}
	.st13{fill:none;stroke:#000000;stroke-width:0.423;stroke-miterlimit:10;}
	.st14{fill:none;stroke:#000000;stroke-width:1.3013;stroke-miterlimit:10;}
	.st15{fill:none;stroke:#000000;stroke-width:0.9635;stroke-miterlimit:10;}
	.st16{fill:none;stroke:#000000;stroke-width:0.6352;stroke-miterlimit:10;}
	.st17{fill:none;stroke:#000000;stroke-width:5;stroke-miterlimit:10;}
	.st18{fill:none;stroke:#000000;stroke-width:7.0481;stroke-miterlimit:10;}
	.st19{fill:#9E7870;}
	.st20{fill:#FFEEBB;}
	.st21{fill:#ECAF20;}
	.st22{fill:#E7DED0;}
	.st23{fill:#9481BC;}
	.st24{fill:#919195;}
	.st25{stroke:#FFFFFF;stroke-width:4;stroke-linecap:square;stroke-linejoin:round;stroke-miterlimit:10;}
</style>
<g id="Layer_2">
</g>
<g id="Layer_1">
	<g>
		<path class="st21" d="M72.5,113.8c-0.2,0-0.4-0.1-0.7-0.1c0.2,0,0.4-0.1,0.6-0.1c-3.7-6.8-5.8-14.6-5.8-23.1c0-20,12-37,28.7-43.1
			c-2.2-10.2-13.8-18.6-33.6-14.2c-22.3-4.6-32.8,4-34.7,14.3c16.6,6.1,28.5,23,28.5,43c0,8.4-2.1,16.3-5.8,23
			c0.3,0,0.6,0.1,0.9,0.1c-0.4,0-0.7,0.1-1,0.2c-5.1,9.2-13.2,16.3-22.8,19.8c0,0.3,0,0.6,0,0.9c0,11.7,15.5,21.2,34.5,21.2
			s34.5-9.5,34.5-21.2c0-0.3,0-0.5,0-0.8C85.9,130.4,77.7,123.2,72.5,113.8z"/>
		<path class="st21" d="M61.9,27.3c0,0-4.2-7.4,7.3-8.9C74,24,61.9,27.3,61.9,27.3z"/>
		<g>
			<path class="st1" d="M124.1,45.6c-0.4,0.3-0.8,0.6-1.3,0.8c-0.5,0.2-1,0.4-1.6,0.5c-0.6,0.1-1.2,0.2-1.9,0.2
				c-1.1,0-2-0.2-2.9-0.6c-0.9-0.4-1.7-0.9-2.3-1.6c-0.7-0.7-1.2-1.4-1.5-2.4c-0.4-0.9-0.6-1.9-0.6-2.9v0c0-1,0.2-2,0.6-2.9
				c0.4-0.9,0.9-1.7,1.5-2.4c0.7-0.7,1.4-1.2,2.4-1.6c0.9-0.4,1.9-0.6,3-0.6c0.7,0,1.3,0.1,1.8,0.2c0.6,0.1,1.1,0.3,1.5,0.5
				c0.5,0.2,0.9,0.4,1.3,0.7c0.4,0.3,0.7,0.6,1.1,0.9l-2,2.3c-0.6-0.5-1.1-0.9-1.7-1.2c-0.6-0.3-1.2-0.4-2-0.4
				c-0.6,0-1.2,0.1-1.7,0.3c-0.5,0.2-1,0.6-1.3,1c-0.4,0.4-0.7,0.9-0.9,1.4c-0.2,0.5-0.3,1.1-0.3,1.7v0c0,0.6,0.1,1.2,0.3,1.7
				c0.2,0.5,0.5,1,0.9,1.4c0.4,0.4,0.8,0.7,1.3,1c0.5,0.2,1.1,0.4,1.7,0.4c0.8,0,1.5-0.2,2.1-0.5c0.6-0.3,1.1-0.7,1.7-1.2l2,2
				C124.8,44.9,124.5,45.3,124.1,45.6z"/>
			<path class="st1" d="M141.8,42.6c-0.4,0.9-0.9,1.7-1.6,2.4c-0.7,0.7-1.5,1.2-2.4,1.6c-0.9,0.4-2,0.6-3.1,0.6
				c-1.1,0-2.1-0.2-3.1-0.6c-0.9-0.4-1.7-0.9-2.4-1.6c-0.7-0.7-1.2-1.4-1.6-2.3c-0.4-0.9-0.6-1.9-0.6-2.9v0c0-1,0.2-2,0.6-2.9
				c0.4-0.9,0.9-1.7,1.6-2.4c0.7-0.7,1.5-1.2,2.4-1.6c0.9-0.4,2-0.6,3.1-0.6s2.1,0.2,3.1,0.6c0.9,0.4,1.7,0.9,2.4,1.6
				c0.7,0.7,1.2,1.4,1.6,2.3c0.4,0.9,0.6,1.9,0.6,2.9v0C142.4,40.7,142.2,41.7,141.8,42.6z M139.1,39.7c0-0.6-0.1-1.2-0.3-1.7
				c-0.2-0.5-0.5-1-0.9-1.4c-0.4-0.4-0.9-0.7-1.4-1c-0.5-0.2-1.1-0.4-1.7-0.4c-0.6,0-1.2,0.1-1.8,0.3c-0.5,0.2-1,0.6-1.4,1
				c-0.4,0.4-0.7,0.9-0.9,1.4c-0.2,0.5-0.3,1.1-0.3,1.7v0c0,0.6,0.1,1.2,0.3,1.7c0.2,0.5,0.5,1,0.9,1.4s0.8,0.7,1.4,1
				c0.5,0.2,1.1,0.4,1.8,0.4c0.6,0,1.2-0.1,1.7-0.3s1-0.6,1.4-1c0.4-0.4,0.7-0.9,0.9-1.4C139,40.9,139.1,40.3,139.1,39.7L139.1,39.7
				z"/>
			<path class="st1" d="M156.5,46.9v-9.4l-4,6.1h-0.1l-4-6.1v9.3h-3.1V32.5h3.4l3.8,6.1l3.8-6.1h3.4v14.4H156.5z"/>
			<path class="st1" d="M174,39.7c-0.3,0.6-0.7,1.2-1.2,1.6c-0.5,0.4-1.1,0.7-1.9,1c-0.7,0.2-1.5,0.3-2.3,0.3h-2.4v4.3H163V32.5h5.9
				c0.9,0,1.6,0.1,2.3,0.4c0.7,0.2,1.3,0.6,1.7,1c0.5,0.4,0.8,1,1.1,1.6c0.3,0.6,0.4,1.3,0.4,2v0C174.4,38.3,174.3,39.1,174,39.7z
				 M171.2,37.5c0-0.7-0.2-1.3-0.7-1.6c-0.5-0.4-1.1-0.6-1.9-0.6h-2.4v4.4h2.5c0.8,0,1.4-0.2,1.8-0.6
				C171,38.7,171.2,38.2,171.2,37.5L171.2,37.5z"/>
			<path class="st1" d="M188.6,43.5c-0.3,0.8-0.7,1.5-1.3,2c-0.5,0.5-1.2,0.9-2,1.2c-0.8,0.3-1.7,0.4-2.6,0.4
				c-1.9,0-3.5-0.5-4.6-1.6s-1.7-2.7-1.7-4.8v-8.2h3.2v8.1c0,1.2,0.3,2.1,0.8,2.7c0.5,0.6,1.3,0.9,2.3,0.9c1,0,1.7-0.3,2.3-0.9
				c0.5-0.6,0.8-1.4,0.8-2.6v-8.2h3.2v8.1C189.1,41.7,188.9,42.6,188.6,43.5z"/>
			<path class="st1" d="M198.8,35.4v11.5h-3.2V35.4h-4.4v-2.9h11.9v2.9H198.8z"/>
			<path class="st1" d="M216.3,46.9l-1.3-3.2h-6.1l-1.3,3.2h-3.2l6.2-14.5h2.9l6.2,14.5H216.3z M212,36.2l-1.9,4.7h3.8L212,36.2z"/>
			<path class="st1" d="M228.4,35.4v11.5h-3.2V35.4h-4.4v-2.9h11.9v2.9H228.4z"/>
			<path class="st1" d="M235.3,46.9V32.5h3.2v14.4H235.3z"/>
			<path class="st1" d="M256.2,42.6c-0.4,0.9-0.9,1.7-1.6,2.4c-0.7,0.7-1.5,1.2-2.4,1.6c-0.9,0.4-2,0.6-3.1,0.6
				c-1.1,0-2.1-0.2-3.1-0.6c-0.9-0.4-1.7-0.9-2.4-1.6c-0.7-0.7-1.2-1.4-1.6-2.3c-0.4-0.9-0.6-1.9-0.6-2.9v0c0-1,0.2-2,0.6-2.9
				c0.4-0.9,0.9-1.7,1.6-2.4c0.7-0.7,1.5-1.2,2.4-1.6c0.9-0.4,2-0.6,3.1-0.6s2.1,0.2,3.1,0.6c0.9,0.4,1.7,0.9,2.4,1.6
				c0.7,0.7,1.2,1.4,1.6,2.3c0.4,0.9,0.6,1.9,0.6,2.9v0C256.7,40.7,256.5,41.7,256.2,42.6z M253.4,39.7c0-0.6-0.1-1.2-0.3-1.7
				c-0.2-0.5-0.5-1-0.9-1.4c-0.4-0.4-0.9-0.7-1.4-1c-0.5-0.2-1.1-0.4-1.7-0.4c-0.6,0-1.2,0.1-1.8,0.3c-0.5,0.2-1,0.6-1.4,1
				c-0.4,0.4-0.7,0.9-0.9,1.4c-0.2,0.5-0.3,1.1-0.3,1.7v0c0,0.6,0.1,1.2,0.3,1.7c0.2,0.5,0.5,1,0.9,1.4s0.8,0.7,1.4,1
				c0.5,0.2,1.1,0.4,1.8,0.4c0.6,0,1.2-0.1,1.7-0.3s1-0.6,1.4-1c0.4-0.4,0.7-0.9,0.9-1.4C253.3,40.9,253.4,40.3,253.4,39.7
				L253.4,39.7z"/>
			<path class="st1" d="M269.6,46.9l-7-9.1v9.1h-3.1V32.5h2.9l6.7,8.9v-8.9h3.1v14.4H269.6z"/>
			<path class="st1" d="M286.5,46.9l-1.3-3.2h-6.1l-1.3,3.2h-3.2l6.2-14.5h2.9l6.2,14.5H286.5z M282.1,36.2l-1.9,4.7h3.8L282.1,36.2
				z"/>
			<path class="st1" d="M292,46.9V32.5h3.2V44h7.2v2.9H292z"/>
		</g>
		<g>
			<path class="st1" d="M139,110.4c-1.5,1.2-3.2,2.2-5,3.1c-1.8,0.9-3.8,1.5-5.9,2c-2.1,0.4-4.5,0.7-7.2,0.7c-4,0-7.8-0.7-11.2-2.2
				c-3.4-1.5-6.4-3.5-8.9-6c-2.5-2.5-4.5-5.5-5.9-9s-2.1-7.1-2.1-11v-0.2c0-3.9,0.7-7.6,2.1-11c1.4-3.4,3.4-6.4,5.9-9
				c2.5-2.6,5.5-4.6,9-6.1c3.5-1.5,7.4-2.2,11.6-2.2c2.6,0,4.9,0.2,7,0.6c2.1,0.4,4,1,5.8,1.7c1.7,0.7,3.3,1.6,4.8,2.7
				c1.5,1,2.8,2.2,4.1,3.4l-7.7,8.9c-2.1-1.9-4.3-3.4-6.5-4.5c-2.2-1.1-4.7-1.6-7.5-1.6c-2.3,0-4.4,0.4-6.4,1.3
				c-2,0.9-3.6,2.1-5.1,3.7c-1.4,1.6-2.5,3.4-3.3,5.4c-0.8,2.1-1.2,4.3-1.2,6.6v0.2c0,2.4,0.4,4.6,1.2,6.7c0.8,2.1,1.9,3.9,3.3,5.5
				c1.4,1.6,3.1,2.8,5,3.7c2,0.9,4.1,1.4,6.5,1.4c3.1,0,5.8-0.6,8-1.7c2.2-1.1,4.3-2.7,6.5-4.7l7.7,7.8
				C142,107.8,140.5,109.2,139,110.4z"/>
			<path class="st1" d="M201.2,98.7c-1.5,3.4-3.5,6.4-6.1,9c-2.6,2.6-5.7,4.6-9.2,6.1c-3.6,1.5-7.5,2.2-11.7,2.2
				c-4.2,0-8.1-0.7-11.7-2.2c-3.6-1.5-6.6-3.5-9.2-6c-2.6-2.5-4.6-5.5-6-8.9c-1.4-3.4-2.2-7.1-2.2-11v-0.2c0-3.9,0.7-7.6,2.2-11
				c1.5-3.4,3.5-6.4,6.1-9c2.6-2.6,5.7-4.6,9.2-6.1c3.6-1.5,7.5-2.2,11.7-2.2c4.2,0,8.1,0.7,11.7,2.2c3.6,1.5,6.6,3.5,9.2,6
				c2.6,2.5,4.6,5.5,6,8.9c1.4,3.4,2.2,7.1,2.2,11v0.2C203.4,91.6,202.7,95.3,201.2,98.7z M190.8,87.7c0-2.4-0.4-4.6-1.2-6.7
				c-0.8-2.1-2-3.9-3.4-5.5c-1.5-1.6-3.3-2.8-5.3-3.7c-2-0.9-4.3-1.4-6.7-1.4c-2.5,0-4.7,0.4-6.7,1.3c-2,0.9-3.7,2.1-5.2,3.7
				c-1.4,1.6-2.6,3.4-3.4,5.4c-0.8,2.1-1.2,4.3-1.2,6.6v0.2c0,2.4,0.4,4.6,1.2,6.7c0.8,2.1,2,3.9,3.4,5.5c1.5,1.6,3.2,2.8,5.3,3.7
				c2,0.9,4.2,1.4,6.7,1.4c2.4,0,4.6-0.4,6.7-1.3c2-0.9,3.8-2.1,5.2-3.7c1.4-1.6,2.6-3.4,3.4-5.4c0.8-2.1,1.2-4.3,1.2-6.6V87.7z"/>
			<path class="st1" d="M242,115.1l-11.8-17.6h-9.5v17.6h-12.1V60.3h25.1c6.5,0,11.6,1.6,15.2,4.8c3.6,3.2,5.4,7.6,5.4,13.3v0.2
				c0,4.4-1.1,8.1-3.3,10.9c-2.2,2.8-5,4.8-8.5,6.2l13.4,19.6H242z M242.2,79c0-2.6-0.8-4.6-2.5-5.9c-1.7-1.3-4-2-7-2h-12v15.7H233
				c3,0,5.3-0.7,6.9-2.1c1.6-1.4,2.4-3.3,2.4-5.6V79z"/>
			<path class="st1" d="M263,115.1V60.3h41.3V71h-29.4v11.1h25.9v10.7h-25.9v11.5h29.8v10.7H263z"/>
		</g>
	</g>
</g>
</svg>
